<?xml version="1.0" encoding="UTF-8" standalone="no"?>
<!DOCTYPE svg PUBLIC "-//W3C//DTD SVG 1.1//EN" "http://www.w3.org/Graphics/SVG/1.1/DTD/svg11.dtd">
<svg version="1.1" xmlns:xl="http://www.w3.org/1999/xlink" xmlns="http://www.w3.org/2000/svg" xmlns:dc="http://purl.org/dc/elements/1.1/" viewBox="203 232 601 488" width="601" height="488">
  <defs>
    <filter id="Shadow" filterUnits="userSpaceOnUse" x="142.9" y="183.2">
      <feGaussianBlur in="SourceAlpha" result="blur" stdDeviation="2.616"/>
      <feOffset in="blur" result="offset" dx="0" dy="2"/>
      <feFlood flood-color="black" flood-opacity=".5" result="flood"/>
      <feComposite in="flood" in2="offset" operator="in"/>
    </filter>
    <marker orient="auto" overflow="visible" markerUnits="strokeWidth" id="FilledArrow_Marker" stroke-linejoin="miter" stroke-miterlimit="10" viewBox="-1 -3 6 6" markerWidth="6" markerHeight="6" color="black">
      <g>
        <path d="M 3.2 0 L 0 -1.2 L 0 1.2 Z" fill="currentColor" stroke="currentColor" stroke-width="1"/>
      </g>
    </marker>
    <marker orient="auto" overflow="visible" markerUnits="strokeWidth" id="FilledArrow_Marker_2" stroke-linejoin="miter" stroke-miterlimit="10" viewBox="-5 -3 6 6" markerWidth="6" markerHeight="6" color="black">
      <g>
        <path d="M -3.2 0 L 0 1.2 L 0 -1.2 Z" fill="currentColor" stroke="currentColor" stroke-width="1"/>
      </g>
    </marker>
  </defs>
  <g id="Canvas_1" stroke-dasharray="none" stroke="none" stroke-opacity="1" fill-opacity="1" fill="none">
    <title>Canvas 1</title>
    <rect fill="white" x="203" y="232" width="601" height="488"/>
    <g id="Canvas_1_Layer_1">
      <title>Layer 1</title>
      <g id="Graphic_2_shadow" filter="url(#Shadow)">
        <path d="M 415.4 241 L 446.6 241 C 457 241 462.2 241 468.44 242.4 C 473.64 243.8 478.84 247.3 480.92 250.8 C 483 255 483 258.5 483 265.5 L 483 286.5 C 483 293.5 483 297 480.92 301.2 C 478.84 304.7 473.64 308.2 468.44 309.6 C 462.2 311 457 311 446.6 311 L 415.4 311 C 405 311 399.8 311 393.56 309.6 C 388.36 308.2 383.16 304.7 381.08 301.2 C 379 297 379 293.5 379 286.5 L 379 265.5 C 379 258.5 379 255 381.08 250.8 C 383.16 247.3 388.36 243.8 393.56 242.4 C 399.8 241 405 241 415.4 241 M 415.4 241" fill="white"/>
        <path d="M 415.4 241 L 446.6 241 C 457 241 462.2 241 468.44 242.4 C 473.64 243.8 478.84 247.3 480.92 250.8 C 483 255 483 258.5 483 265.5 L 483 286.5 C 483 293.5 483 297 480.92 301.2 C 478.84 304.7 473.64 308.2 468.44 309.6 C 462.2 311 457 311 446.6 311 L 415.4 311 C 405 311 399.8 311 393.56 309.6 C 388.36 308.2 383.16 304.7 381.08 301.2 C 379 297 379 293.5 379 286.5 L 379 265.5 C 379 258.5 379 255 381.08 250.8 C 383.16 247.3 388.36 243.8 393.56 242.4 C 399.8 241 405 241 415.4 241 M 415.4 241" stroke="black" stroke-linecap="round" stroke-linejoin="round" stroke-width="2"/>
      </g>
      <g id="Graphic_3_shadow" filter="url(#Shadow)">
        <path d="M 479.9 422.375 L 511.1 422.375 C 521.5 422.375 526.7 422.375 532.94 423.775 C 538.14 425.175 543.34 428.675 545.42 432.175 C 547.5 436.375 547.5 439.875 547.5 446.875 L 547.5 467.875 C 547.5 474.875 547.5 478.375 545.42 482.575 C 543.34 486.075 538.14 489.575 532.94 490.975 C 526.7 492.375 521.5 492.375 511.1 492.375 L 479.9 492.375 C 469.5 492.375 464.3 492.375 458.06 490.975 C 452.86 489.575 447.66 486.075 445.58 482.575 C 443.5 478.375 443.5 474.875 443.5 467.875 L 443.5 446.875 C 443.5 439.875 443.5 436.375 445.58 432.175 C 447.66 428.675 452.86 425.175 458.06 423.775 C 464.3 422.375 469.5 422.375 479.9 422.375 M 479.9 422.375" fill="white"/>
        <path d="M 479.9 422.375 L 511.1 422.375 C 521.5 422.375 526.7 422.375 532.94 423.775 C 538.14 425.175 543.34 428.675 545.42 432.175 C 547.5 436.375 547.5 439.875 547.5 446.875 L 547.5 467.875 C 547.5 474.875 547.5 478.375 545.42 482.575 C 543.34 486.075 538.14 489.575 532.94 490.975 C 526.7 492.375 521.5 492.375 511.1 492.375 L 479.9 492.375 C 469.5 492.375 464.3 492.375 458.06 490.975 C 452.86 489.575 447.66 486.075 445.58 482.575 C 443.5 478.375 443.5 474.875 443.5 467.875 L 443.5 446.875 C 443.5 439.875 443.5 436.375 445.58 432.175 C 447.66 428.675 452.86 425.175 458.06 423.775 C 464.3 422.375 469.5 422.375 479.9 422.375 M 479.9 422.375" stroke="black" stroke-linecap="round" stroke-linejoin="round" stroke-width="2"/>
      </g>
      <g id="Graphic_4_shadow" filter="url(#Shadow)">
        <path d="M 350.9 422.375 L 382.1 422.375 C 392.5 422.375 397.7 422.375 403.94 423.775 C 409.14 425.175 414.34 428.675 416.42 432.175 C 418.5 436.375 418.5 439.875 418.5 446.875 L 418.5 467.875 C 418.5 474.875 418.5 478.375 416.42 482.575 C 414.34 486.075 409.14 489.575 403.94 490.975 C 397.7 492.375 392.5 492.375 382.1 492.375 L 350.9 492.375 C 340.5 492.375 335.3 492.375 329.06 490.975 C 323.86 489.575 318.66 486.075 316.58 482.575 C 314.5 478.375 314.5 474.875 314.5 467.875 L 314.5 446.875 C 314.5 439.875 314.5 436.375 316.58 432.175 C 318.66 428.675 323.86 425.175 329.06 423.775 C 335.3 422.375 340.5 422.375 350.9 422.375 M 350.9 422.375" fill="white"/>
        <path d="M 350.9 422.375 L 382.1 422.375 C 392.5 422.375 397.7 422.375 403.94 423.775 C 409.14 425.175 414.34 428.675 416.42 432.175 C 418.5 436.375 418.5 439.875 418.5 446.875 L 418.5 467.875 C 418.5 474.875 418.5 478.375 416.42 482.575 C 414.34 486.075 409.14 489.575 403.94 490.975 C 397.7 492.375 392.5 492.375 382.1 492.375 L 350.9 492.375 C 340.5 492.375 335.3 492.375 329.06 490.975 C 323.86 489.575 318.66 486.075 316.58 482.575 C 314.5 478.375 314.5 474.875 314.5 467.875 L 314.5 446.875 C 314.5 439.875 314.5 436.375 316.58 432.175 C 318.66 428.675 323.86 425.175 329.06 423.775 C 335.3 422.375 340.5 422.375 350.9 422.375 M 350.9 422.375" stroke="black" stroke-linecap="round" stroke-linejoin="round" stroke-width="2"/>
      </g>
      <g id="Graphic_5_shadow" filter="url(#Shadow)">
        <path d="M 294.9 524.5 L 326.1 524.5 C 336.5 524.5 341.7 524.5 347.94 525.9 C 353.14 527.3 358.34 530.8 360.42 534.3 C 362.5 538.5 362.5 542 362.5 549 L 362.5 570 C 362.5 577 362.5 580.5 360.42 584.7 C 358.34 588.2 353.14 591.7 347.94 593.1 C 341.7 594.5 336.5 594.5 326.1 594.5 L 294.9 594.5 C 284.5 594.5 279.3 594.5 273.06 593.1 C 267.86 591.7 262.66 588.2 260.58 584.7 C 258.5 580.5 258.5 577 258.5 570 L 258.5 549 C 258.5 542 258.5 538.5 260.58 534.3 C 262.66 530.8 267.86 527.3 273.06 525.9 C 279.3 524.5 284.5 524.5 294.9 524.5 M 294.9 524.5" fill="white"/>
        <path d="M 294.9 524.5 L 326.1 524.5 C 336.5 524.5 341.7 524.5 347.94 525.9 C 353.14 527.3 358.34 530.8 360.42 534.3 C 362.5 538.5 362.5 542 362.5 549 L 362.5 570 C 362.5 577 362.5 580.5 360.42 584.7 C 358.34 588.2 353.14 591.7 347.94 593.1 C 341.7 594.5 336.5 594.5 326.1 594.5 L 294.9 594.5 C 284.5 594.5 279.3 594.5 273.06 593.1 C 267.86 591.7 262.66 588.2 260.58 584.7 C 258.5 580.5 258.5 577 258.5 570 L 258.5 549 C 258.5 542 258.5 538.5 260.58 534.3 C 262.66 530.8 267.86 527.3 273.06 525.9 C 279.3 524.5 284.5 524.5 294.9 524.5 M 294.9 524.5" stroke="black" stroke-linecap="round" stroke-linejoin="round" stroke-width="2"/>
      </g>
      <g id="Graphic_6_shadow" filter="url(#Shadow)">
        <path d="M 415.4 320.25 L 446.6 320.25 C 457 320.25 462.2 320.25 468.44 321.65 C 473.64 323.05 478.84 326.55 480.92 330.05 C 483 334.25 483 337.75 483 344.75 L 483 365.75 C 483 372.75 483 376.25 480.92 380.45 C 478.84 383.95 473.64 387.45 468.44 388.85 C 462.2 390.25 457 390.25 446.6 390.25 L 415.4 390.25 C 405 390.25 399.8 390.25 393.56 388.85 C 388.36 387.45 383.16 383.95 381.08 380.45 C 379 376.25 379 372.75 379 365.75 L 379 344.75 C 379 337.75 379 334.25 381.08 330.05 C 383.16 326.55 388.36 323.05 393.56 321.65 C 399.8 320.25 405 320.25 415.4 320.25 M 415.4 320.25" fill="white"/>
        <path d="M 415.4 320.25 L 446.6 320.25 C 457 320.25 462.2 320.25 468.44 321.65 C 473.64 323.05 478.84 326.55 480.92 330.05 C 483 334.25 483 337.75 483 344.75 L 483 365.75 C 483 372.75 483 376.25 480.92 380.45 C 478.84 383.95 473.64 387.45 468.44 388.85 C 462.2 390.25 457 390.25 446.6 390.25 L 415.4 390.25 C 405 390.25 399.8 390.25 393.56 388.85 C 388.36 387.45 383.16 383.95 381.08 380.45 C 379 376.25 379 372.75 379 365.75 L 379 344.75 C 379 337.75 379 334.25 381.08 330.05 C 383.16 326.55 388.36 323.05 393.56 321.65 C 399.8 320.25 405 320.25 415.4 320.25 M 415.4 320.25" stroke="black" stroke-linecap="round" stroke-linejoin="round" stroke-width="2"/>
      </g>
      <g id="Graphic_7_shadow" filter="url(#Shadow)">
        <path d="M 535.9 524.5 L 567.1 524.5 C 577.5 524.5 582.7 524.5 588.94 525.9 C 594.14 527.3 599.34 530.8 601.42 534.3 C 603.5 538.5 603.5 542 603.5 549 L 603.5 570 C 603.5 577 603.5 580.5 601.42 584.7 C 599.34 588.2 594.14 591.7 588.94 593.1 C 582.7 594.5 577.5 594.5 567.1 594.5 L 535.9 594.5 C 525.5 594.5 520.3 594.5 514.06 593.1 C 508.86 591.7 503.66 588.2 501.58 584.7 C 499.5 580.5 499.5 577 499.5 570 L 499.5 549 C 499.5 542 499.5 538.5 501.58 534.3 C 503.66 530.8 508.86 527.3 514.06 525.9 C 520.3 524.5 525.5 524.5 535.9 524.5 M 535.9 524.5" fill="white"/>
        <path d="M 535.9 524.5 L 567.1 524.5 C 577.5 524.5 582.7 524.5 588.94 525.9 C 594.14 527.3 599.34 530.8 601.42 534.3 C 603.5 538.5 603.5 542 603.5 549 L 603.5 570 C 603.5 577 603.5 580.5 601.42 584.7 C 599.34 588.2 594.14 591.7 588.94 593.1 C 582.7 594.5 577.5 594.5 567.1 594.5 L 535.9 594.5 C 525.5 594.5 520.3 594.5 514.06 593.1 C 508.86 591.7 503.66 588.2 501.58 584.7 C 499.5 580.5 499.5 577 499.5 570 L 499.5 549 C 499.5 542 499.5 538.5 501.58 534.3 C 503.66 530.8 508.86 527.3 514.06 525.9 C 520.3 524.5 525.5 524.5 535.9 524.5 M 535.9 524.5" stroke="black" stroke-linecap="round" stroke-linejoin="round" stroke-width="2"/>
      </g>
      <g id="Graphic_8_shadow" filter="url(#Shadow)">
        <path d="M 415.4 524.5 L 446.6 524.5 C 457 524.5 462.2 524.5 468.44 525.9 C 473.64 527.3 478.84 530.8 480.92 534.3 C 483 538.5 483 542 483 549 L 483 570 C 483 577 483 580.5 480.92 584.7 C 478.84 588.2 473.64 591.7 468.44 593.1 C 462.2 594.5 457 594.5 446.6 594.5 L 415.4 594.5 C 405 594.5 399.8 594.5 393.56 593.1 C 388.36 591.7 383.16 588.2 381.08 584.7 C 379 580.5 379 577 379 570 L 379 549 C 379 542 379 538.5 381.08 534.3 C 383.16 530.8 388.36 527.3 393.56 525.9 C 399.8 524.5 405 524.5 415.4 524.5 M 415.4 524.5" fill="white"/>
        <path d="M 415.4 524.5 L 446.6 524.5 C 457 524.5 462.2 524.5 468.44 525.9 C 473.64 527.3 478.84 530.8 480.92 534.3 C 483 538.5 483 542 483 549 L 483 570 C 483 577 483 580.5 480.92 584.7 C 478.84 588.2 473.64 591.7 468.44 593.1 C 462.2 594.5 457 594.5 446.6 594.5 L 415.4 594.5 C 405 594.5 399.8 594.5 393.56 593.1 C 388.36 591.7 383.16 588.2 381.08 584.7 C 379 580.5 379 577 379 570 L 379 549 C 379 542 379 538.5 381.08 534.3 C 383.16 530.8 388.36 527.3 393.56 525.9 C 399.8 524.5 405 524.5 415.4 524.5 M 415.4 524.5" stroke="black" stroke-linecap="round" stroke-linejoin="round" stroke-width="2"/>
      </g>
      <g id="Graphic_17_shadow" filter="url(#Shadow)">
        <path d="M 415.4 637.625 L 446.6 637.625 C 457 637.625 462.2 637.625 468.44 639.025 C 473.64 640.425 478.84 643.925 480.92 647.425 C 483 651.625 483 655.125 483 662.125 L 483 683.125 C 483 690.125 483 693.625 480.92 697.825 C 478.84 701.325 473.64 704.825 468.44 706.225 C 462.2 707.625 457 707.625 446.6 707.625 L 415.4 707.625 C 405 707.625 399.8 707.625 393.56 706.225 C 388.36 704.825 383.16 701.325 381.08 697.825 C 379 693.625 379 690.125 379 683.125 L 379 662.125 C 379 655.125 379 651.625 381.08 647.425 C 383.16 643.925 388.36 640.425 393.56 639.025 C 399.8 637.625 405 637.625 415.4 637.625 M 415.4 637.625" fill="white"/>
        <path d="M 415.4 637.625 L 446.6 637.625 C 457 637.625 462.2 637.625 468.44 639.025 C 473.64 640.425 478.84 643.925 480.92 647.425 C 483 651.625 483 655.125 483 662.125 L 483 683.125 C 483 690.125 483 693.625 480.92 697.825 C 478.84 701.325 473.64 704.825 468.44 706.225 C 462.2 707.625 457 707.625 446.6 707.625 L 415.4 707.625 C 405 707.625 399.8 707.625 393.56 706.225 C 388.36 704.825 383.16 701.325 381.08 697.825 C 379 693.625 379 690.125 379 683.125 L 379 662.125 C 379 655.125 379 651.625 381.08 647.425 C 383.16 643.925 388.36 640.425 393.56 639.025 C 399.8 637.625 405 637.625 415.4 637.625 M 415.4 637.625" stroke="black" stroke-linecap="round" stroke-linejoin="round" stroke-width="2"/>
      </g>
      <g id="Graphic_13">
        <rect x="247" y="232.5" width="526" height="170.5" fill="#ffc0c0"/>
        <rect x="247" y="232.5" width="526" height="170.5" stroke="black" stroke-linecap="round" stroke-linejoin="round" stroke-width="1"/>
      </g>
      <g id="Graphic_12">
        <rect x="247" y="414.5" width="526" height="87.5" fill="#ff8080"/>
        <rect x="247" y="414.5" width="526" height="87.5" stroke="black" stroke-linecap="round" stroke-linejoin="round" stroke-width="1"/>
      </g>
      <g id="Graphic_11">
        <rect x="247" y="513.5" width="526" height="92" fill="#8080ff"/>
        <rect x="247" y="513.5" width="526" height="92" stroke="black" stroke-linecap="round" stroke-linejoin="round" stroke-width="1"/>
      </g>
      <g id="Graphic_2">
        <path d="M 415.4 241 L 446.6 241 C 457 241 462.2 241 468.44 242.4 C 473.64 243.8 478.84 247.3 480.92 250.8 C 483 255 483 258.5 483 265.5 L 483 286.5 C 483 293.5 483 297 480.92 301.2 C 478.84 304.7 473.64 308.2 468.44 309.6 C 462.2 311 457 311 446.6 311 L 415.4 311 C 405 311 399.8 311 393.56 309.6 C 388.36 308.2 383.16 304.7 381.08 301.2 C 379 297 379 293.5 379 286.5 L 379 265.5 C 379 258.5 379 255 381.08 250.8 C 383.16 247.3 388.36 243.8 393.56 242.4 C 399.8 241 405 241 415.4 241 M 415.4 241" fill="white"/>
        <path d="M 415.4 241 L 446.6 241 C 457 241 462.2 241 468.44 242.4 C 473.64 243.8 478.84 247.3 480.92 250.8 C 483 255 483 258.5 483 265.5 L 483 286.5 C 483 293.5 483 297 480.92 301.2 C 478.84 304.7 473.64 308.2 468.44 309.6 C 462.2 311 457 311 446.6 311 L 415.4 311 C 405 311 399.8 311 393.56 309.6 C 388.36 308.2 383.16 304.7 381.08 301.2 C 379 297 379 293.5 379 286.5 L 379 265.5 C 379 258.5 379 255 381.08 250.8 C 383.16 247.3 388.36 243.8 393.56 242.4 C 399.8 241 405 241 415.4 241 M 415.4 241" stroke="black" stroke-linecap="round" stroke-linejoin="round" stroke-width="2"/>
        <text transform="translate(384 261.664)" fill="black">
          <tspan font-family="Helvetica Neue" font-size="24" fill="black" x="35.228" y="23" xml:space="preserve">cli</tspan>
        </text>
      </g>
      <g id="Graphic_3">
        <path d="M 479.9 422.375 L 511.1 422.375 C 521.5 422.375 526.7 422.375 532.94 423.775 C 538.14 425.175 543.34 428.675 545.42 432.175 C 547.5 436.375 547.5 439.875 547.5 446.875 L 547.5 467.875 C 547.5 474.875 547.5 478.375 545.42 482.575 C 543.34 486.075 538.14 489.575 532.94 490.975 C 526.7 492.375 521.5 492.375 511.1 492.375 L 479.9 492.375 C 469.5 492.375 464.3 492.375 458.06 490.975 C 452.86 489.575 447.66 486.075 445.58 482.575 C 443.5 478.375 443.5 474.875 443.5 467.875 L 443.5 446.875 C 443.5 439.875 443.5 436.375 445.58 432.175 C 447.66 428.675 452.86 425.175 458.06 423.775 C 464.3 422.375 469.5 422.375 479.9 422.375 M 479.9 422.375" fill="white"/>
        <path d="M 479.9 422.375 L 511.1 422.375 C 521.5 422.375 526.7 422.375 532.94 423.775 C 538.14 425.175 543.34 428.675 545.42 432.175 C 547.5 436.375 547.5 439.875 547.5 446.875 L 547.5 467.875 C 547.5 474.875 547.5 478.375 545.42 482.575 C 543.34 486.075 538.14 489.575 532.94 490.975 C 526.7 492.375 521.5 492.375 511.1 492.375 L 479.9 492.375 C 469.5 492.375 464.3 492.375 458.06 490.975 C 452.86 489.575 447.66 486.075 445.58 482.575 C 443.5 478.375 443.5 474.875 443.5 467.875 L 443.5 446.875 C 443.5 439.875 443.5 436.375 445.58 432.175 C 447.66 428.675 452.86 425.175 458.06 423.775 C 464.3 422.375 469.5 422.375 479.9 422.375 M 479.9 422.375" stroke="black" stroke-linecap="round" stroke-linejoin="round" stroke-width="2"/>
        <text transform="translate(448.5 443.039)" fill="black">
          <tspan font-family="Helvetica Neue" font-size="24" fill="black" x="9.896" y="23" xml:space="preserve">extract</tspan>
        </text>
      </g>
      <g id="Graphic_4">
        <path d="M 350.9 422.375 L 382.1 422.375 C 392.5 422.375 397.7 422.375 403.94 423.775 C 409.14 425.175 414.34 428.675 416.42 432.175 C 418.5 436.375 418.5 439.875 418.5 446.875 L 418.5 467.875 C 418.5 474.875 418.5 478.375 416.42 482.575 C 414.34 486.075 409.14 489.575 403.94 490.975 C 397.7 492.375 392.5 492.375 382.1 492.375 L 350.9 492.375 C 340.5 492.375 335.3 492.375 329.06 490.975 C 323.86 489.575 318.66 486.075 316.58 482.575 C 314.5 478.375 314.5 474.875 314.5 467.875 L 314.5 446.875 C 314.5 439.875 314.5 436.375 316.58 432.175 C 318.66 428.675 323.86 425.175 329.06 423.775 C 335.3 422.375 340.5 422.375 350.9 422.375 M 350.9 422.375" fill="white"/>
        <path d="M 350.9 422.375 L 382.1 422.375 C 392.5 422.375 397.7 422.375 403.94 423.775 C 409.14 425.175 414.34 428.675 416.42 432.175 C 418.5 436.375 418.5 439.875 418.5 446.875 L 418.5 467.875 C 418.5 474.875 418.5 478.375 416.42 482.575 C 414.34 486.075 409.14 489.575 403.94 490.975 C 397.7 492.375 392.5 492.375 382.1 492.375 L 350.9 492.375 C 340.5 492.375 335.3 492.375 329.06 490.975 C 323.86 489.575 318.66 486.075 316.58 482.575 C 314.5 478.375 314.5 474.875 314.5 467.875 L 314.5 446.875 C 314.5 439.875 314.5 436.375 316.58 432.175 C 318.66 428.675 323.86 425.175 329.06 423.775 C 335.3 422.375 340.5 422.375 350.9 422.375 M 350.9 422.375" stroke="black" stroke-linecap="round" stroke-linejoin="round" stroke-width="2"/>
        <text transform="translate(319.5 443.039)" fill="black">
          <tspan font-family="Helvetica Neue" font-size="24" fill="black" x="1.424" y="23" xml:space="preserve">ensembl</tspan>
        </text>
      </g>
      <g id="Graphic_5">
        <path d="M 294.9 524.5 L 326.1 524.5 C 336.5 524.5 341.7 524.5 347.94 525.9 C 353.14 527.3 358.34 530.8 360.42 534.3 C 362.5 538.5 362.5 542 362.5 549 L 362.5 570 C 362.5 577 362.5 580.5 360.42 584.7 C 358.34 588.2 353.14 591.7 347.94 593.1 C 341.7 594.5 336.5 594.5 326.1 594.5 L 294.9 594.5 C 284.5 594.5 279.3 594.5 273.06 593.1 C 267.86 591.7 262.66 588.2 260.58 584.7 C 258.5 580.5 258.5 577 258.5 570 L 258.5 549 C 258.5 542 258.5 538.5 260.58 534.3 C 262.66 530.8 267.86 527.3 273.06 525.9 C 279.3 524.5 284.5 524.5 294.9 524.5 M 294.9 524.5" fill="white"/>
        <path d="M 294.9 524.5 L 326.1 524.5 C 336.5 524.5 341.7 524.5 347.94 525.9 C 353.14 527.3 358.34 530.8 360.42 534.3 C 362.5 538.5 362.5 542 362.5 549 L 362.5 570 C 362.5 577 362.5 580.5 360.42 584.7 C 358.34 588.2 353.14 591.7 347.94 593.1 C 341.7 594.5 336.5 594.5 326.1 594.5 L 294.9 594.5 C 284.5 594.5 279.3 594.5 273.06 593.1 C 267.86 591.7 262.66 588.2 260.58 584.7 C 258.5 580.5 258.5 577 258.5 570 L 258.5 549 C 258.5 542 258.5 538.5 260.58 534.3 C 262.66 530.8 267.86 527.3 273.06 525.9 C 279.3 524.5 284.5 524.5 294.9 524.5 M 294.9 524.5" stroke="black" stroke-linecap="round" stroke-linejoin="round" stroke-width="2"/>
        <text transform="translate(263.5 545.164)" fill="black">
          <tspan font-family="Helvetica Neue" font-size="24" fill="black" x="16.976" y="23" xml:space="preserve">enum</tspan>
        </text>
      </g>
      <g id="Graphic_6">
        <path d="M 415.4 320.25 L 446.6 320.25 C 457 320.25 462.2 320.25 468.44 321.65 C 473.64 323.05 478.84 326.55 480.92 330.05 C 483 334.25 483 337.75 483 344.75 L 483 365.75 C 483 372.75 483 376.25 480.92 380.45 C 478.84 383.95 473.64 387.45 468.44 388.85 C 462.2 390.25 457 390.25 446.6 390.25 L 415.4 390.25 C 405 390.25 399.8 390.25 393.56 388.85 C 388.36 387.45 383.16 383.95 381.08 380.45 C 379 376.25 379 372.75 379 365.75 L 379 344.75 C 379 337.75 379 334.25 381.08 330.05 C 383.16 326.55 388.36 323.05 393.56 321.65 C 399.8 320.25 405 320.25 415.4 320.25 M 415.4 320.25" fill="white"/>
        <path d="M 415.4 320.25 L 446.6 320.25 C 457 320.25 462.2 320.25 468.44 321.65 C 473.64 323.05 478.84 326.55 480.92 330.05 C 483 334.25 483 337.75 483 344.75 L 483 365.75 C 483 372.75 483 376.25 480.92 380.45 C 478.84 383.95 473.64 387.45 468.44 388.85 C 462.2 390.25 457 390.25 446.6 390.25 L 415.4 390.25 C 405 390.25 399.8 390.25 393.56 388.85 C 388.36 387.45 383.16 383.95 381.08 380.45 C 379 376.25 379 372.75 379 365.75 L 379 344.75 C 379 337.75 379 334.25 381.08 330.05 C 383.16 326.55 388.36 323.05 393.56 321.65 C 399.8 320.25 405 320.25 415.4 320.25 M 415.4 320.25" stroke="black" stroke-linecap="round" stroke-linejoin="round" stroke-width="2"/>
        <text transform="translate(384 340.914)" fill="black">
          <tspan font-family="Helvetica Neue" font-size="24" fill="black" x="10.772" y="23" xml:space="preserve">varona</tspan>
        </text>
      </g>
      <g id="Graphic_7">
        <path d="M 535.9 524.5 L 567.1 524.5 C 577.5 524.5 582.7 524.5 588.94 525.9 C 594.14 527.3 599.34 530.8 601.42 534.3 C 603.5 538.5 603.5 542 603.5 549 L 603.5 570 C 603.5 577 603.5 580.5 601.42 584.7 C 599.34 588.2 594.14 591.7 588.94 593.1 C 582.7 594.5 577.5 594.5 567.1 594.5 L 535.9 594.5 C 525.5 594.5 520.3 594.5 514.06 593.1 C 508.86 591.7 503.66 588.2 501.58 584.7 C 499.5 580.5 499.5 577 499.5 570 L 499.5 549 C 499.5 542 499.5 538.5 501.58 534.3 C 503.66 530.8 508.86 527.3 514.06 525.9 C 520.3 524.5 525.5 524.5 535.9 524.5 M 535.9 524.5" fill="white"/>
        <path d="M 535.9 524.5 L 567.1 524.5 C 577.5 524.5 582.7 524.5 588.94 525.9 C 594.14 527.3 599.34 530.8 601.42 534.3 C 603.5 538.5 603.5 542 603.5 549 L 603.5 570 C 603.5 577 603.5 580.5 601.42 584.7 C 599.34 588.2 594.14 591.7 588.94 593.1 C 582.7 594.5 577.5 594.5 567.1 594.5 L 535.9 594.5 C 525.5 594.5 520.3 594.5 514.06 593.1 C 508.86 591.7 503.66 588.2 501.58 584.7 C 499.5 580.5 499.5 577 499.5 570 L 499.5 549 C 499.5 542 499.5 538.5 501.58 534.3 C 503.66 530.8 508.86 527.3 514.06 525.9 C 520.3 524.5 525.5 524.5 535.9 524.5 M 535.9 524.5" stroke="black" stroke-linecap="round" stroke-linejoin="round" stroke-width="2"/>
        <text transform="translate(504.5 545.164)" fill="black">
          <tspan font-family="Helvetica Neue" font-size="24" fill="black" x="3.668" y="23" xml:space="preserve">bcftools</tspan>
        </text>
      </g>
      <g id="Graphic_8">
        <path d="M 415.4 524.5 L 446.6 524.5 C 457 524.5 462.2 524.5 468.44 525.9 C 473.64 527.3 478.84 530.8 480.92 534.3 C 483 538.5 483 542 483 549 L 483 570 C 483 577 483 580.5 480.92 584.7 C 478.84 588.2 473.64 591.7 468.44 593.1 C 462.2 594.5 457 594.5 446.6 594.5 L 415.4 594.5 C 405 594.5 399.8 594.5 393.56 593.1 C 388.36 591.7 383.16 588.2 381.08 584.7 C 379 580.5 379 577 379 570 L 379 549 C 379 542 379 538.5 381.08 534.3 C 383.16 530.8 388.36 527.3 393.56 525.9 C 399.8 524.5 405 524.5 415.4 524.5 M 415.4 524.5" fill="white"/>
        <path d="M 415.4 524.5 L 446.6 524.5 C 457 524.5 462.2 524.5 468.44 525.9 C 473.64 527.3 478.84 530.8 480.92 534.3 C 483 538.5 483 542 483 549 L 483 570 C 483 577 483 580.5 480.92 584.7 C 478.84 588.2 473.64 591.7 468.44 593.1 C 462.2 594.5 457 594.5 446.6 594.5 L 415.4 594.5 C 405 594.5 399.8 594.5 393.56 593.1 C 388.36 591.7 383.16 588.2 381.08 584.7 C 379 580.5 379 577 379 570 L 379 549 C 379 542 379 538.5 381.08 534.3 C 383.16 530.8 388.36 527.3 393.56 525.9 C 399.8 524.5 405 524.5 415.4 524.5 M 415.4 524.5" stroke="black" stroke-linecap="round" stroke-linejoin="round" stroke-width="2"/>
        <text transform="translate(384 545.164)" fill="black">
          <tspan font-family="Helvetica Neue" font-size="24" fill="black" x="26.768" y="23" xml:space="preserve">maf</tspan>
        </text>
      </g>
      <g id="Graphic_14">
        <text transform="translate(590.5 237.5)" fill="black">
          <tspan font-family="Courier New" font-weight="bold" font-size="16" fill="black" x="0" y="13" xml:space="preserve">High-level modules</tspan>
        </text>
      </g>
      <g id="Graphic_16">
        <text transform="translate(676.9141 523.5)" fill="black">
          <tspan font-family="Courier New" font-weight="bold" font-size="16" fill="black" x="0" y="13" xml:space="preserve">Low-level</tspan>
          <tspan font-family="Courier New" font-weight="bold" font-size="16" fill="black" x="19.203125" y="31" xml:space="preserve">modules</tspan>
        </text>
      </g>
      <g id="Graphic_18">
        <rect x="247" y="626.625" width="526" height="92" fill="#ffffc0"/>
        <rect x="247" y="626.625" width="526" height="92" stroke="black" stroke-linecap="round" stroke-linejoin="round" stroke-width="1"/>
      </g>
      <g id="Graphic_17">
        <path d="M 415.4 637.625 L 446.6 637.625 C 457 637.625 462.2 637.625 468.44 639.025 C 473.64 640.425 478.84 643.925 480.92 647.425 C 483 651.625 483 655.125 483 662.125 L 483 683.125 C 483 690.125 483 693.625 480.92 697.825 C 478.84 701.325 473.64 704.825 468.44 706.225 C 462.2 707.625 457 707.625 446.6 707.625 L 415.4 707.625 C 405 707.625 399.8 707.625 393.56 706.225 C 388.36 704.825 383.16 701.325 381.08 697.825 C 379 693.625 379 690.125 379 683.125 L 379 662.125 C 379 655.125 379 651.625 381.08 647.425 C 383.16 643.925 388.36 640.425 393.56 639.025 C 399.8 637.625 405 637.625 415.4 637.625 M 415.4 637.625" fill="white"/>
        <path d="M 415.4 637.625 L 446.6 637.625 C 457 637.625 462.2 637.625 468.44 639.025 C 473.64 640.425 478.84 643.925 480.92 647.425 C 483 651.625 483 655.125 483 662.125 L 483 683.125 C 483 690.125 483 693.625 480.92 697.825 C 478.84 701.325 473.64 704.825 468.44 706.225 C 462.2 707.625 457 707.625 446.6 707.625 L 415.4 707.625 C 405 707.625 399.8 707.625 393.56 706.225 C 388.36 704.825 383.16 701.325 381.08 697.825 C 379 693.625 379 690.125 379 683.125 L 379 662.125 C 379 655.125 379 651.625 381.08 647.425 C 383.16 643.925 388.36 640.425 393.56 639.025 C 399.8 637.625 405 637.625 415.4 637.625 M 415.4 637.625" stroke="black" stroke-linecap="round" stroke-linejoin="round" stroke-width="2"/>
        <text transform="translate(384 658.289)" fill="black">
          <tspan font-family="Helvetica Neue" font-size="24" fill="black" x="2.336" y="23" xml:space="preserve">fake_vcf</tspan>
        </text>
      </g>
      <g id="Graphic_19">
        <text transform="translate(696.1172 631.625)" fill="black">
          <tspan font-family="Courier New" font-weight="bold" font-size="16" fill="black" x="0" y="13" xml:space="preserve">Testing</tspan>
          <tspan font-family="Courier New" font-weight="bold" font-size="16" fill="black" x="0" y="31" xml:space="preserve">modules</tspan>
        </text>
      </g>
      <g id="Line_21">
        <line x1="796" y1="279.9" x2="796" y2="563.1156" marker-end="url(#FilledArrow_Marker)" marker-start="url(#FilledArrow_Marker_2)" stroke="black" stroke-linecap="round" stroke-linejoin="round" stroke-width="4"/>
      </g>
      <g id="Line_22">
        <line x1="204.5" y1="617.8672" x2="797" y2="617" stroke="#7f8080" stroke-linecap="round" stroke-linejoin="round" stroke-width="3"/>
      </g>
    </g>
  </g>
</svg>
