<?xml version="1.0" encoding="UTF-8" standalone="no"?>
<!DOCTYPE svg PUBLIC "-//W3C//DTD SVG 1.1//EN" "http://www.w3.org/Graphics/SVG/1.1/DTD/svg11.dtd">
<svg xmlns:xl="http://www.w3.org/1999/xlink" xmlns="http://www.w3.org/2000/svg" xmlns:dc="http://purl.org/dc/elements/1.1/" version="1.1" viewBox="203 140 601 580" width="601" height="580">
  <defs>
    <filter id="Shadow" filterUnits="userSpaceOnUse" x="142.9" y="82">
      <feGaussianBlur in="SourceAlpha" result="blur" stdDeviation="2.616"/>
      <feOffset in="blur" result="offset" dx="0" dy="2"/>
      <feFlood flood-color="black" flood-opacity=".5" result="flood"/>
      <feComposite in="flood" in2="offset" operator="in"/>
    </filter>
    <marker orient="auto" overflow="visible" markerUnits="strokeWidth" id="FilledArrow_Marker" stroke-linejoin="miter" stroke-miterlimit="10" viewBox="-1 -3 6 6" markerWidth="6" markerHeight="6" color="black">
      <g>
        <path d="M 3.2 0 L 0 -1.2 L 0 1.2 Z" fill="currentColor" stroke="currentColor" stroke-width="1"/>
      </g>
    </marker>
    <marker orient="auto" overflow="visible" markerUnits="strokeWidth" id="FilledArrow_Marker_2" stroke-linejoin="miter" stroke-miterlimit="10" viewBox="-5 -3 6 6" markerWidth="6" markerHeight="6" color="black">
      <g>
        <path d="M -3.2 0 L 0 1.2 L 0 -1.2 Z" fill="currentColor" stroke="currentColor" stroke-width="1"/>
      </g>
    </marker>
  </defs>
  <g id="Canvas_1" stroke-dasharray="none" stroke="none" stroke-opacity="1" fill="none" fill-opacity="1">
    <title>Canvas 1</title>
    <rect fill="white" x="203" y="140" width="601" height="580"/>
    <g id="Canvas_1_Layer_1">
      <title>Layer 1</title>
      <g id="Graphic_2_shadow" filter="url(#Shadow)">
        <path d="M 423.9 158.5 L 455.1 158.5 C 465.5 158.5 470.7 158.5 476.94 159.9 C 482.14 161.3 487.34 164.8 489.42 168.3 C 491.5 172.5 491.5 176 491.5 183 L 491.5 204 C 491.5 211 491.5 214.5 489.42 218.7 C 487.34 222.2 482.14 225.7 476.94 227.1 C 470.7 228.5 465.5 228.5 455.1 228.5 L 423.9 228.5 C 413.5 228.5 408.3 228.5 402.06 227.1 C 396.86 225.7 391.66 222.2 389.58 218.7 C 387.5 214.5 387.5 211 387.5 204 L 387.5 183 C 387.5 176 387.5 172.5 389.58 168.3 C 391.66 164.8 396.86 161.3 402.06 159.9 C 408.3 158.5 413.5 158.5 423.9 158.5 M 423.9 158.5" fill="white"/>
        <path d="M 423.9 158.5 L 455.1 158.5 C 465.5 158.5 470.7 158.5 476.94 159.9 C 482.14 161.3 487.34 164.8 489.42 168.3 C 491.5 172.5 491.5 176 491.5 183 L 491.5 204 C 491.5 211 491.5 214.5 489.42 218.7 C 487.34 222.2 482.14 225.7 476.94 227.1 C 470.7 228.5 465.5 228.5 455.1 228.5 L 423.9 228.5 C 413.5 228.5 408.3 228.5 402.06 227.1 C 396.86 225.7 391.66 222.2 389.58 218.7 C 387.5 214.5 387.5 211 387.5 204 L 387.5 183 C 387.5 176 387.5 172.5 389.58 168.3 C 391.66 164.8 396.86 161.3 402.06 159.9 C 408.3 158.5 413.5 158.5 423.9 158.5 M 423.9 158.5" stroke="black" stroke-linecap="round" stroke-linejoin="round" stroke-width="2"/>
      </g>
      <g id="Graphic_3_shadow" filter="url(#Shadow)">
        <path d="M 485.15 322 L 516.35 322 C 526.75 322 531.95 322 538.19 323.4 C 543.39 324.8 548.59 328.3 550.67 331.8 C 552.75 336 552.75 339.5 552.75 346.5 L 552.75 367.5 C 552.75 374.5 552.75 378 550.67 382.2 C 548.59 385.7 543.39 389.2 538.19 390.6 C 531.95 392 526.75 392 516.35 392 L 485.15 392 C 474.75 392 469.55 392 463.31 390.6 C 458.11 389.2 452.91 385.7 450.83 382.2 C 448.75 378 448.75 374.5 448.75 367.5 L 448.75 346.5 C 448.75 339.5 448.75 336 450.83 331.8 C 452.91 328.3 458.11 324.8 463.31 323.4 C 469.55 322 474.75 322 485.15 322 M 485.15 322" fill="white"/>
        <path d="M 485.15 322 L 516.35 322 C 526.75 322 531.95 322 538.19 323.4 C 543.39 324.8 548.59 328.3 550.67 331.8 C 552.75 336 552.75 339.5 552.75 346.5 L 552.75 367.5 C 552.75 374.5 552.75 378 550.67 382.2 C 548.59 385.7 543.39 389.2 538.19 390.6 C 531.95 392 526.75 392 516.35 392 L 485.15 392 C 474.75 392 469.55 392 463.31 390.6 C 458.11 389.2 452.91 385.7 450.83 382.2 C 448.75 378 448.75 374.5 448.75 367.5 L 448.75 346.5 C 448.75 339.5 448.75 336 450.83 331.8 C 452.91 328.3 458.11 324.8 463.31 323.4 C 469.55 322 474.75 322 485.15 322 M 485.15 322" stroke="black" stroke-linecap="round" stroke-linejoin="round" stroke-width="2"/>
      </g>
      <g id="Graphic_4_shadow" filter="url(#Shadow)">
        <path d="M 423.9 422.375 L 455.1 422.375 C 465.5 422.375 470.7 422.375 476.94 423.775 C 482.14 425.175 487.34 428.675 489.42 432.175 C 491.5 436.375 491.5 439.875 491.5 446.875 L 491.5 467.875 C 491.5 474.875 491.5 478.375 489.42 482.575 C 487.34 486.075 482.14 489.575 476.94 490.975 C 470.7 492.375 465.5 492.375 455.1 492.375 L 423.9 492.375 C 413.5 492.375 408.3 492.375 402.06 490.975 C 396.86 489.575 391.66 486.075 389.58 482.575 C 387.5 478.375 387.5 474.875 387.5 467.875 L 387.5 446.875 C 387.5 439.875 387.5 436.375 389.58 432.175 C 391.66 428.675 396.86 425.175 402.06 423.775 C 408.3 422.375 413.5 422.375 423.9 422.375 M 423.9 422.375" fill="white"/>
        <path d="M 423.9 422.375 L 455.1 422.375 C 465.5 422.375 470.7 422.375 476.94 423.775 C 482.14 425.175 487.34 428.675 489.42 432.175 C 491.5 436.375 491.5 439.875 491.5 446.875 L 491.5 467.875 C 491.5 474.875 491.5 478.375 489.42 482.575 C 487.34 486.075 482.14 489.575 476.94 490.975 C 470.7 492.375 465.5 492.375 455.1 492.375 L 423.9 492.375 C 413.5 492.375 408.3 492.375 402.06 490.975 C 396.86 489.575 391.66 486.075 389.58 482.575 C 387.5 478.375 387.5 474.875 387.5 467.875 L 387.5 446.875 C 387.5 439.875 387.5 436.375 389.58 432.175 C 391.66 428.675 396.86 425.175 402.06 423.775 C 408.3 422.375 413.5 422.375 423.9 422.375 M 423.9 422.375" stroke="black" stroke-linecap="round" stroke-linejoin="round" stroke-width="2"/>
      </g>
      <g id="Graphic_5_shadow" filter="url(#Shadow)">
        <path d="M 303.4 524.5 L 334.6 524.5 C 345 524.5 350.2 524.5 356.44 525.9 C 361.64 527.3 366.84 530.8 368.92 534.3 C 371 538.5 371 542 371 549 L 371 570 C 371 577 371 580.5 368.92 584.7 C 366.84 588.2 361.64 591.7 356.44 593.1 C 350.2 594.5 345 594.5 334.6 594.5 L 303.4 594.5 C 293 594.5 287.8 594.5 281.56 593.1 C 276.36 591.7 271.16 588.2 269.08 584.7 C 267 580.5 267 577 267 570 L 267 549 C 267 542 267 538.5 269.08 534.3 C 271.16 530.8 276.36 527.3 281.56 525.9 C 287.8 524.5 293 524.5 303.4 524.5 M 303.4 524.5" fill="white"/>
        <path d="M 303.4 524.5 L 334.6 524.5 C 345 524.5 350.2 524.5 356.44 525.9 C 361.64 527.3 366.84 530.8 368.92 534.3 C 371 538.5 371 542 371 549 L 371 570 C 371 577 371 580.5 368.92 584.7 C 366.84 588.2 361.64 591.7 356.44 593.1 C 350.2 594.5 345 594.5 334.6 594.5 L 303.4 594.5 C 293 594.5 287.8 594.5 281.56 593.1 C 276.36 591.7 271.16 588.2 269.08 584.7 C 267 580.5 267 577 267 570 L 267 549 C 267 542 267 538.5 269.08 534.3 C 271.16 530.8 276.36 527.3 281.56 525.9 C 287.8 524.5 293 524.5 303.4 524.5 M 303.4 524.5" stroke="black" stroke-linecap="round" stroke-linejoin="round" stroke-width="2"/>
      </g>
      <g id="Graphic_6_shadow" filter="url(#Shadow)">
        <path d="M 423.9 240.25 L 455.1 240.25 C 465.5 240.25 470.7 240.25 476.94 241.65 C 482.14 243.05 487.34 246.55 489.42 250.05 C 491.5 254.25 491.5 257.75 491.5 264.75 L 491.5 285.75 C 491.5 292.75 491.5 296.25 489.42 300.45 C 487.34 303.95 482.14 307.45 476.94 308.85 C 470.7 310.25 465.5 310.25 455.1 310.25 L 423.9 310.25 C 413.5 310.25 408.3 310.25 402.06 308.85 C 396.86 307.45 391.66 303.95 389.58 300.45 C 387.5 296.25 387.5 292.75 387.5 285.75 L 387.5 264.75 C 387.5 257.75 387.5 254.25 389.58 250.05 C 391.66 246.55 396.86 243.05 402.06 241.65 C 408.3 240.25 413.5 240.25 423.9 240.25 M 423.9 240.25" fill="white"/>
        <path d="M 423.9 240.25 L 455.1 240.25 C 465.5 240.25 470.7 240.25 476.94 241.65 C 482.14 243.05 487.34 246.55 489.42 250.05 C 491.5 254.25 491.5 257.75 491.5 264.75 L 491.5 285.75 C 491.5 292.75 491.5 296.25 489.42 300.45 C 487.34 303.95 482.14 307.45 476.94 308.85 C 470.7 310.25 465.5 310.25 455.1 310.25 L 423.9 310.25 C 413.5 310.25 408.3 310.25 402.06 308.85 C 396.86 307.45 391.66 303.95 389.58 300.45 C 387.5 296.25 387.5 292.75 387.5 285.75 L 387.5 264.75 C 387.5 257.75 387.5 254.25 389.58 250.05 C 391.66 246.55 396.86 243.05 402.06 241.65 C 408.3 240.25 413.5 240.25 423.9 240.25 M 423.9 240.25" stroke="black" stroke-linecap="round" stroke-linejoin="round" stroke-width="2"/>
      </g>
      <g id="Graphic_7_shadow" filter="url(#Shadow)">
        <path d="M 544.4 524.5 L 575.6 524.5 C 586 524.5 591.2 524.5 597.44 525.9 C 602.64 527.3 607.84 530.8 609.92 534.3 C 612 538.5 612 542 612 549 L 612 570 C 612 577 612 580.5 609.92 584.7 C 607.84 588.2 602.64 591.7 597.44 593.1 C 591.2 594.5 586 594.5 575.6 594.5 L 544.4 594.5 C 534 594.5 528.8 594.5 522.56 593.1 C 517.36 591.7 512.16 588.2 510.08 584.7 C 508 580.5 508 577 508 570 L 508 549 C 508 542 508 538.5 510.08 534.3 C 512.16 530.8 517.36 527.3 522.56 525.9 C 528.8 524.5 534 524.5 544.4 524.5 M 544.4 524.5" fill="white"/>
        <path d="M 544.4 524.5 L 575.6 524.5 C 586 524.5 591.2 524.5 597.44 525.9 C 602.64 527.3 607.84 530.8 609.92 534.3 C 612 538.5 612 542 612 549 L 612 570 C 612 577 612 580.5 609.92 584.7 C 607.84 588.2 602.64 591.7 597.44 593.1 C 591.2 594.5 586 594.5 575.6 594.5 L 544.4 594.5 C 534 594.5 528.8 594.5 522.56 593.1 C 517.36 591.7 512.16 588.2 510.08 584.7 C 508 580.5 508 577 508 570 L 508 549 C 508 542 508 538.5 510.08 534.3 C 512.16 530.8 517.36 527.3 522.56 525.9 C 528.8 524.5 534 524.5 544.4 524.5 M 544.4 524.5" stroke="black" stroke-linecap="round" stroke-linejoin="round" stroke-width="2"/>
      </g>
      <g id="Graphic_8_shadow" filter="url(#Shadow)">
        <path d="M 423.9 524.5 L 455.1 524.5 C 465.5 524.5 470.7 524.5 476.94 525.9 C 482.14 527.3 487.34 530.8 489.42 534.3 C 491.5 538.5 491.5 542 491.5 549 L 491.5 570 C 491.5 577 491.5 580.5 489.42 584.7 C 487.34 588.2 482.14 591.7 476.94 593.1 C 470.7 594.5 465.5 594.5 455.1 594.5 L 423.9 594.5 C 413.5 594.5 408.3 594.5 402.06 593.1 C 396.86 591.7 391.66 588.2 389.58 584.7 C 387.5 580.5 387.5 577 387.5 570 L 387.5 549 C 387.5 542 387.5 538.5 389.58 534.3 C 391.66 530.8 396.86 527.3 402.06 525.9 C 408.3 524.5 413.5 524.5 423.9 524.5 M 423.9 524.5" fill="white"/>
        <path d="M 423.9 524.5 L 455.1 524.5 C 465.5 524.5 470.7 524.5 476.94 525.9 C 482.14 527.3 487.34 530.8 489.42 534.3 C 491.5 538.5 491.5 542 491.5 549 L 491.5 570 C 491.5 577 491.5 580.5 489.42 584.7 C 487.34 588.2 482.14 591.7 476.94 593.1 C 470.7 594.5 465.5 594.5 455.1 594.5 L 423.9 594.5 C 413.5 594.5 408.3 594.5 402.06 593.1 C 396.86 591.7 391.66 588.2 389.58 584.7 C 387.5 580.5 387.5 577 387.5 570 L 387.5 549 C 387.5 542 387.5 538.5 389.58 534.3 C 391.66 530.8 396.86 527.3 402.06 525.9 C 408.3 524.5 413.5 524.5 423.9 524.5 M 423.9 524.5" stroke="black" stroke-linecap="round" stroke-linejoin="round" stroke-width="2"/>
      </g>
      <g id="Graphic_17_shadow" filter="url(#Shadow)">
        <path d="M 423.9 637.625 L 455.1 637.625 C 465.5 637.625 470.7 637.625 476.94 639.025 C 482.14 640.425 487.34 643.925 489.42 647.425 C 491.5 651.625 491.5 655.125 491.5 662.125 L 491.5 683.125 C 491.5 690.125 491.5 693.625 489.42 697.825 C 487.34 701.325 482.14 704.825 476.94 706.225 C 470.7 707.625 465.5 707.625 455.1 707.625 L 423.9 707.625 C 413.5 707.625 408.3 707.625 402.06 706.225 C 396.86 704.825 391.66 701.325 389.58 697.825 C 387.5 693.625 387.5 690.125 387.5 683.125 L 387.5 662.125 C 387.5 655.125 387.5 651.625 389.58 647.425 C 391.66 643.925 396.86 640.425 402.06 639.025 C 408.3 637.625 413.5 637.625 423.9 637.625 M 423.9 637.625" fill="white"/>
        <path d="M 423.9 637.625 L 455.1 637.625 C 465.5 637.625 470.7 637.625 476.94 639.025 C 482.14 640.425 487.34 643.925 489.42 647.425 C 491.5 651.625 491.5 655.125 491.5 662.125 L 491.5 683.125 C 491.5 690.125 491.5 693.625 489.42 697.825 C 487.34 701.325 482.14 704.825 476.94 706.225 C 470.7 707.625 465.5 707.625 455.1 707.625 L 423.9 707.625 C 413.5 707.625 408.3 707.625 402.06 706.225 C 396.86 704.825 391.66 701.325 389.58 697.825 C 387.5 693.625 387.5 690.125 387.5 683.125 L 387.5 662.125 C 387.5 655.125 387.5 651.625 389.58 647.425 C 391.66 643.925 396.86 640.425 402.06 639.025 C 408.3 637.625 413.5 637.625 423.9 637.625 M 423.9 637.625" stroke="black" stroke-linecap="round" stroke-linejoin="round" stroke-width="2"/>
      </g>
      <g id="Graphic_23_shadow" filter="url(#Shadow)">
        <path d="M 351.35 322 L 387.65 322 C 399.75 322 405.8 322 413.06 323.4 C 419.11 324.8 425.16 328.3 427.58 331.8 C 430 336 430 339.5 430 346.5 L 430 367.5 C 430 374.5 430 378 427.58 382.2 C 425.16 385.7 419.11 389.2 413.06 390.6 C 405.8 392 399.75 392 387.65 392 L 351.35 392 C 339.25 392 333.2 392 325.94 390.6 C 319.89 389.2 313.84 385.7 311.42 382.2 C 309 378 309 374.5 309 367.5 L 309 346.5 C 309 339.5 309 336 311.42 331.8 C 313.84 328.3 319.89 324.8 325.94 323.4 C 333.2 322 339.25 322 351.35 322 M 351.35 322" fill="white"/>
        <path d="M 351.35 322 L 387.65 322 C 399.75 322 405.8 322 413.06 323.4 C 419.11 324.8 425.16 328.3 427.58 331.8 C 430 336 430 339.5 430 346.5 L 430 367.5 C 430 374.5 430 378 427.58 382.2 C 425.16 385.7 419.11 389.2 413.06 390.6 C 405.8 392 399.75 392 387.65 392 L 351.35 392 C 339.25 392 333.2 392 325.94 390.6 C 319.89 389.2 313.84 385.7 311.42 382.2 C 309 378 309 374.5 309 367.5 L 309 346.5 C 309 339.5 309 336 311.42 331.8 C 313.84 328.3 319.89 324.8 325.94 323.4 C 333.2 322 339.25 322 351.35 322 M 351.35 322" stroke="black" stroke-linecap="round" stroke-linejoin="round" stroke-width="2"/>
      </g>
      <g id="Graphic_13">
        <rect x="247" y="140.5" width="526" height="262.5" fill="#ffc0c0"/>
        <rect x="247" y="140.5" width="526" height="262.5" stroke="black" stroke-linecap="round" stroke-linejoin="round" stroke-width="1"/>
      </g>
      <g id="Graphic_12">
        <rect x="247" y="414.5" width="526" height="87.5" fill="#ff8080"/>
        <rect x="247" y="414.5" width="526" height="87.5" stroke="black" stroke-linecap="round" stroke-linejoin="round" stroke-width="1"/>
      </g>
      <g id="Graphic_11">
        <rect x="247" y="513.5" width="526" height="92" fill="#8080ff"/>
        <rect x="247" y="513.5" width="526" height="92" stroke="black" stroke-linecap="round" stroke-linejoin="round" stroke-width="1"/>
      </g>
      <g id="Graphic_2">
        <path d="M 423.9 158.5 L 455.1 158.5 C 465.5 158.5 470.7 158.5 476.94 159.9 C 482.14 161.3 487.34 164.8 489.42 168.3 C 491.5 172.5 491.5 176 491.5 183 L 491.5 204 C 491.5 211 491.5 214.5 489.42 218.7 C 487.34 222.2 482.14 225.7 476.94 227.1 C 470.7 228.5 465.5 228.5 455.1 228.5 L 423.9 228.5 C 413.5 228.5 408.3 228.5 402.06 227.1 C 396.86 225.7 391.66 222.2 389.58 218.7 C 387.5 214.5 387.5 211 387.5 204 L 387.5 183 C 387.5 176 387.5 172.5 389.58 168.3 C 391.66 164.8 396.86 161.3 402.06 159.9 C 408.3 158.5 413.5 158.5 423.9 158.5 M 423.9 158.5" fill="white"/>
        <path d="M 423.9 158.5 L 455.1 158.5 C 465.5 158.5 470.7 158.5 476.94 159.9 C 482.14 161.3 487.34 164.8 489.42 168.3 C 491.5 172.5 491.5 176 491.5 183 L 491.5 204 C 491.5 211 491.5 214.5 489.42 218.7 C 487.34 222.2 482.14 225.7 476.94 227.1 C 470.7 228.5 465.5 228.5 455.1 228.5 L 423.9 228.5 C 413.5 228.5 408.3 228.5 402.06 227.1 C 396.86 225.7 391.66 222.2 389.58 218.7 C 387.5 214.5 387.5 211 387.5 204 L 387.5 183 C 387.5 176 387.5 172.5 389.58 168.3 C 391.66 164.8 396.86 161.3 402.06 159.9 C 408.3 158.5 413.5 158.5 423.9 158.5 M 423.9 158.5" stroke="black" stroke-linecap="round" stroke-linejoin="round" stroke-width="2"/>
        <text transform="translate(392.5 179.164)" fill="black">
          <tspan font-family="Helvetica Neue" font-size="24" fill="black" x="35.228" y="23" xml:space="preserve">cli</tspan>
        </text>
      </g>
      <g id="Graphic_3">
        <path d="M 485.15 322 L 516.35 322 C 526.75 322 531.95 322 538.19 323.4 C 543.39 324.8 548.59 328.3 550.67 331.8 C 552.75 336 552.75 339.5 552.75 346.5 L 552.75 367.5 C 552.75 374.5 552.75 378 550.67 382.2 C 548.59 385.7 543.39 389.2 538.19 390.6 C 531.95 392 526.75 392 516.35 392 L 485.15 392 C 474.75 392 469.55 392 463.31 390.6 C 458.11 389.2 452.91 385.7 450.83 382.2 C 448.75 378 448.75 374.5 448.75 367.5 L 448.75 346.5 C 448.75 339.5 448.75 336 450.83 331.8 C 452.91 328.3 458.11 324.8 463.31 323.4 C 469.55 322 474.75 322 485.15 322 M 485.15 322" fill="white"/>
        <path d="M 485.15 322 L 516.35 322 C 526.75 322 531.95 322 538.19 323.4 C 543.39 324.8 548.59 328.3 550.67 331.8 C 552.75 336 552.75 339.5 552.75 346.5 L 552.75 367.5 C 552.75 374.5 552.75 378 550.67 382.2 C 548.59 385.7 543.39 389.2 538.19 390.6 C 531.95 392 526.75 392 516.35 392 L 485.15 392 C 474.75 392 469.55 392 463.31 390.6 C 458.11 389.2 452.91 385.7 450.83 382.2 C 448.75 378 448.75 374.5 448.75 367.5 L 448.75 346.5 C 448.75 339.5 448.75 336 450.83 331.8 C 452.91 328.3 458.11 324.8 463.31 323.4 C 469.55 322 474.75 322 485.15 322 M 485.15 322" stroke="black" stroke-linecap="round" stroke-linejoin="round" stroke-width="2"/>
        <text transform="translate(453.75 342.664)" fill="black">
          <tspan font-family="Helvetica Neue" font-size="24" fill="black" x="9.896" y="23" xml:space="preserve">extract</tspan>
        </text>
      </g>
      <g id="Graphic_4">
        <path d="M 423.9 422.375 L 455.1 422.375 C 465.5 422.375 470.7 422.375 476.94 423.775 C 482.14 425.175 487.34 428.675 489.42 432.175 C 491.5 436.375 491.5 439.875 491.5 446.875 L 491.5 467.875 C 491.5 474.875 491.5 478.375 489.42 482.575 C 487.34 486.075 482.14 489.575 476.94 490.975 C 470.7 492.375 465.5 492.375 455.1 492.375 L 423.9 492.375 C 413.5 492.375 408.3 492.375 402.06 490.975 C 396.86 489.575 391.66 486.075 389.58 482.575 C 387.5 478.375 387.5 474.875 387.5 467.875 L 387.5 446.875 C 387.5 439.875 387.5 436.375 389.58 432.175 C 391.66 428.675 396.86 425.175 402.06 423.775 C 408.3 422.375 413.5 422.375 423.9 422.375 M 423.9 422.375" fill="white"/>
        <path d="M 423.9 422.375 L 455.1 422.375 C 465.5 422.375 470.7 422.375 476.94 423.775 C 482.14 425.175 487.34 428.675 489.42 432.175 C 491.5 436.375 491.5 439.875 491.5 446.875 L 491.5 467.875 C 491.5 474.875 491.5 478.375 489.42 482.575 C 487.34 486.075 482.14 489.575 476.94 490.975 C 470.7 492.375 465.5 492.375 455.1 492.375 L 423.9 492.375 C 413.5 492.375 408.3 492.375 402.06 490.975 C 396.86 489.575 391.66 486.075 389.58 482.575 C 387.5 478.375 387.5 474.875 387.5 467.875 L 387.5 446.875 C 387.5 439.875 387.5 436.375 389.58 432.175 C 391.66 428.675 396.86 425.175 402.06 423.775 C 408.3 422.375 413.5 422.375 423.9 422.375 M 423.9 422.375" stroke="black" stroke-linecap="round" stroke-linejoin="round" stroke-width="2"/>
        <text transform="translate(392.5 443.039)" fill="black">
          <tspan font-family="Helvetica Neue" font-size="24" fill="black" x="1.424" y="23" xml:space="preserve">ensembl</tspan>
        </text>
      </g>
      <g id="Graphic_5">
        <path d="M 303.4 524.5 L 334.6 524.5 C 345 524.5 350.2 524.5 356.44 525.9 C 361.64 527.3 366.84 530.8 368.92 534.3 C 371 538.5 371 542 371 549 L 371 570 C 371 577 371 580.5 368.92 584.7 C 366.84 588.2 361.64 591.7 356.44 593.1 C 350.2 594.5 345 594.5 334.6 594.5 L 303.4 594.5 C 293 594.5 287.8 594.5 281.56 593.1 C 276.36 591.7 271.16 588.2 269.08 584.7 C 267 580.5 267 577 267 570 L 267 549 C 267 542 267 538.5 269.08 534.3 C 271.16 530.8 276.36 527.3 281.56 525.9 C 287.8 524.5 293 524.5 303.4 524.5 M 303.4 524.5" fill="white"/>
        <path d="M 303.4 524.5 L 334.6 524.5 C 345 524.5 350.2 524.5 356.44 525.9 C 361.64 527.3 366.84 530.8 368.92 534.3 C 371 538.5 371 542 371 549 L 371 570 C 371 577 371 580.5 368.92 584.7 C 366.84 588.2 361.64 591.7 356.44 593.1 C 350.2 594.5 345 594.5 334.6 594.5 L 303.4 594.5 C 293 594.5 287.8 594.5 281.56 593.1 C 276.36 591.7 271.16 588.2 269.08 584.7 C 267 580.5 267 577 267 570 L 267 549 C 267 542 267 538.5 269.08 534.3 C 271.16 530.8 276.36 527.3 281.56 525.9 C 287.8 524.5 293 524.5 303.4 524.5 M 303.4 524.5" stroke="black" stroke-linecap="round" stroke-linejoin="round" stroke-width="2"/>
        <text transform="translate(272 545.164)" fill="black">
          <tspan font-family="Helvetica Neue" font-size="24" fill="black" x="16.976" y="23" xml:space="preserve">enum</tspan>
        </text>
      </g>
      <g id="Graphic_6">
        <path d="M 423.9 240.25 L 455.1 240.25 C 465.5 240.25 470.7 240.25 476.94 241.65 C 482.14 243.05 487.34 246.55 489.42 250.05 C 491.5 254.25 491.5 257.75 491.5 264.75 L 491.5 285.75 C 491.5 292.75 491.5 296.25 489.42 300.45 C 487.34 303.95 482.14 307.45 476.94 308.85 C 470.7 310.25 465.5 310.25 455.1 310.25 L 423.9 310.25 C 413.5 310.25 408.3 310.25 402.06 308.85 C 396.86 307.45 391.66 303.95 389.58 300.45 C 387.5 296.25 387.5 292.75 387.5 285.75 L 387.5 264.75 C 387.5 257.75 387.5 254.25 389.58 250.05 C 391.66 246.55 396.86 243.05 402.06 241.65 C 408.3 240.25 413.5 240.25 423.9 240.25 M 423.9 240.25" fill="white"/>
        <path d="M 423.9 240.25 L 455.1 240.25 C 465.5 240.25 470.7 240.25 476.94 241.65 C 482.14 243.05 487.34 246.55 489.42 250.05 C 491.5 254.25 491.5 257.75 491.5 264.75 L 491.5 285.75 C 491.5 292.75 491.5 296.25 489.42 300.45 C 487.34 303.95 482.14 307.45 476.94 308.85 C 470.7 310.25 465.5 310.25 455.1 310.25 L 423.9 310.25 C 413.5 310.25 408.3 310.25 402.06 308.85 C 396.86 307.45 391.66 303.95 389.58 300.45 C 387.5 296.25 387.5 292.75 387.5 285.75 L 387.5 264.75 C 387.5 257.75 387.5 254.25 389.58 250.05 C 391.66 246.55 396.86 243.05 402.06 241.65 C 408.3 240.25 413.5 240.25 423.9 240.25 M 423.9 240.25" stroke="black" stroke-linecap="round" stroke-linejoin="round" stroke-width="2"/>
        <text transform="translate(392.5 260.914)" fill="black">
          <tspan font-family="Helvetica Neue" font-size="24" fill="black" x="1.208" y="23" xml:space="preserve">platypus</tspan>
        </text>
      </g>
      <g id="Graphic_7">
        <path d="M 544.4 524.5 L 575.6 524.5 C 586 524.5 591.2 524.5 597.44 525.9 C 602.64 527.3 607.84 530.8 609.92 534.3 C 612 538.5 612 542 612 549 L 612 570 C 612 577 612 580.5 609.92 584.7 C 607.84 588.2 602.64 591.7 597.44 593.1 C 591.2 594.5 586 594.5 575.6 594.5 L 544.4 594.5 C 534 594.5 528.8 594.5 522.56 593.1 C 517.36 591.7 512.16 588.2 510.08 584.7 C 508 580.5 508 577 508 570 L 508 549 C 508 542 508 538.5 510.08 534.3 C 512.16 530.8 517.36 527.3 522.56 525.9 C 528.8 524.5 534 524.5 544.4 524.5 M 544.4 524.5" fill="white"/>
        <path d="M 544.4 524.5 L 575.6 524.5 C 586 524.5 591.2 524.5 597.44 525.9 C 602.64 527.3 607.84 530.8 609.92 534.3 C 612 538.5 612 542 612 549 L 612 570 C 612 577 612 580.5 609.92 584.7 C 607.84 588.2 602.64 591.7 597.44 593.1 C 591.2 594.5 586 594.5 575.6 594.5 L 544.4 594.5 C 534 594.5 528.8 594.5 522.56 593.1 C 517.36 591.7 512.16 588.2 510.08 584.7 C 508 580.5 508 577 508 570 L 508 549 C 508 542 508 538.5 510.08 534.3 C 512.16 530.8 517.36 527.3 522.56 525.9 C 528.8 524.5 534 524.5 544.4 524.5 M 544.4 524.5" stroke="black" stroke-linecap="round" stroke-linejoin="round" stroke-width="2"/>
        <text transform="translate(513 545.164)" fill="black">
          <tspan font-family="Helvetica Neue" font-size="24" fill="black" x="3.668" y="23" xml:space="preserve">bcftools</tspan>
        </text>
      </g>
      <g id="Graphic_8">
        <path d="M 423.9 524.5 L 455.1 524.5 C 465.5 524.5 470.7 524.5 476.94 525.9 C 482.14 527.3 487.34 530.8 489.42 534.3 C 491.5 538.5 491.5 542 491.5 549 L 491.5 570 C 491.5 577 491.5 580.5 489.42 584.7 C 487.34 588.2 482.14 591.7 476.94 593.1 C 470.7 594.5 465.5 594.5 455.1 594.5 L 423.9 594.5 C 413.5 594.5 408.3 594.5 402.06 593.1 C 396.86 591.7 391.66 588.2 389.58 584.7 C 387.5 580.5 387.5 577 387.5 570 L 387.5 549 C 387.5 542 387.5 538.5 389.58 534.3 C 391.66 530.8 396.86 527.3 402.06 525.9 C 408.3 524.5 413.5 524.5 423.9 524.5 M 423.9 524.5" fill="white"/>
        <path d="M 423.9 524.5 L 455.1 524.5 C 465.5 524.5 470.7 524.5 476.94 525.9 C 482.14 527.3 487.34 530.8 489.42 534.3 C 491.5 538.5 491.5 542 491.5 549 L 491.5 570 C 491.5 577 491.5 580.5 489.42 584.7 C 487.34 588.2 482.14 591.7 476.94 593.1 C 470.7 594.5 465.5 594.5 455.1 594.5 L 423.9 594.5 C 413.5 594.5 408.3 594.5 402.06 593.1 C 396.86 591.7 391.66 588.2 389.58 584.7 C 387.5 580.5 387.5 577 387.5 570 L 387.5 549 C 387.5 542 387.5 538.5 389.58 534.3 C 391.66 530.8 396.86 527.3 402.06 525.9 C 408.3 524.5 413.5 524.5 423.9 524.5 M 423.9 524.5" stroke="black" stroke-linecap="round" stroke-linejoin="round" stroke-width="2"/>
        <text transform="translate(392.5 545.164)" fill="black">
          <tspan font-family="Helvetica Neue" font-size="24" fill="black" x="26.768" y="23" xml:space="preserve">maf</tspan>
        </text>
      </g>
      <g id="Graphic_14">
        <text transform="translate(590.5 145.5)" fill="black">
          <tspan font-family="Courier New" font-weight="bold" font-size="16" fill="black" x="0" y="13" xml:space="preserve">High-level modules</tspan>
        </text>
      </g>
      <g id="Graphic_16">
        <text transform="translate(676.9141 523.5)" fill="black">
          <tspan font-family="Courier New" font-weight="bold" font-size="16" fill="black" x="0" y="13" xml:space="preserve">Low-level</tspan>
          <tspan font-family="Courier New" font-weight="bold" font-size="16" fill="black" x="19.203125" y="31" xml:space="preserve">modules</tspan>
        </text>
      </g>
      <g id="Graphic_18">
        <rect x="247" y="626.625" width="526" height="92" fill="#ffffc0"/>
        <rect x="247" y="626.625" width="526" height="92" stroke="black" stroke-linecap="round" stroke-linejoin="round" stroke-width="1"/>
      </g>
      <g id="Graphic_17">
        <path d="M 423.9 637.625 L 455.1 637.625 C 465.5 637.625 470.7 637.625 476.94 639.025 C 482.14 640.425 487.34 643.925 489.42 647.425 C 491.5 651.625 491.5 655.125 491.5 662.125 L 491.5 683.125 C 491.5 690.125 491.5 693.625 489.42 697.825 C 487.34 701.325 482.14 704.825 476.94 706.225 C 470.7 707.625 465.5 707.625 455.1 707.625 L 423.9 707.625 C 413.5 707.625 408.3 707.625 402.06 706.225 C 396.86 704.825 391.66 701.325 389.58 697.825 C 387.5 693.625 387.5 690.125 387.5 683.125 L 387.5 662.125 C 387.5 655.125 387.5 651.625 389.58 647.425 C 391.66 643.925 396.86 640.425 402.06 639.025 C 408.3 637.625 413.5 637.625 423.9 637.625 M 423.9 637.625" fill="white"/>
        <path d="M 423.9 637.625 L 455.1 637.625 C 465.5 637.625 470.7 637.625 476.94 639.025 C 482.14 640.425 487.34 643.925 489.42 647.425 C 491.5 651.625 491.5 655.125 491.5 662.125 L 491.5 683.125 C 491.5 690.125 491.5 693.625 489.42 697.825 C 487.34 701.325 482.14 704.825 476.94 706.225 C 470.7 707.625 465.5 707.625 455.1 707.625 L 423.9 707.625 C 413.5 707.625 408.3 707.625 402.06 706.225 C 396.86 704.825 391.66 701.325 389.58 697.825 C 387.5 693.625 387.5 690.125 387.5 683.125 L 387.5 662.125 C 387.5 655.125 387.5 651.625 389.58 647.425 C 391.66 643.925 396.86 640.425 402.06 639.025 C 408.3 637.625 413.5 637.625 423.9 637.625 M 423.9 637.625" stroke="black" stroke-linecap="round" stroke-linejoin="round" stroke-width="2"/>
        <text transform="translate(392.5 658.289)" fill="black">
          <tspan font-family="Helvetica Neue" font-size="24" fill="black" x="2.336" y="23" xml:space="preserve">fake_vcf</tspan>
        </text>
      </g>
      <g id="Graphic_19">
        <text transform="translate(696.1172 631.625)" fill="black">
          <tspan font-family="Courier New" font-weight="bold" font-size="16" fill="black" x="0" y="13" xml:space="preserve">Testing</tspan>
          <tspan font-family="Courier New" font-weight="bold" font-size="16" fill="black" x="0" y="31" xml:space="preserve">modules</tspan>
        </text>
      </g>
      <g id="Line_21">
        <line x1="796" y1="279.9" x2="796" y2="563.1156" marker-end="url(#FilledArrow_Marker)" marker-start="url(#FilledArrow_Marker_2)" stroke="black" stroke-linecap="round" stroke-linejoin="round" stroke-width="4"/>
      </g>
      <g id="Line_22">
        <line x1="204.5" y1="617.8672" x2="797" y2="617" stroke="#7f8080" stroke-linecap="round" stroke-linejoin="round" stroke-width="3"/>
      </g>
      <g id="Graphic_23">
        <path d="M 351.35 322 L 387.65 322 C 399.75 322 405.8 322 413.06 323.4 C 419.11 324.8 425.16 328.3 427.58 331.8 C 430 336 430 339.5 430 346.5 L 430 367.5 C 430 374.5 430 378 427.58 382.2 C 425.16 385.7 419.11 389.2 413.06 390.6 C 405.8 392 399.75 392 387.65 392 L 351.35 392 C 339.25 392 333.2 392 325.94 390.6 C 319.89 389.2 313.84 385.7 311.42 382.2 C 309 378 309 374.5 309 367.5 L 309 346.5 C 309 339.5 309 336 311.42 331.8 C 313.84 328.3 319.89 324.8 325.94 323.4 C 333.2 322 339.25 322 351.35 322 M 351.35 322" fill="white"/>
        <path d="M 351.35 322 L 387.65 322 C 399.75 322 405.8 322 413.06 323.4 C 419.11 324.8 425.16 328.3 427.58 331.8 C 430 336 430 339.5 430 346.5 L 430 367.5 C 430 374.5 430 378 427.58 382.2 C 425.16 385.7 419.11 389.2 413.06 390.6 C 405.8 392 399.75 392 387.65 392 L 351.35 392 C 339.25 392 333.2 392 325.94 390.6 C 319.89 389.2 313.84 385.7 311.42 382.2 C 309 378 309 374.5 309 367.5 L 309 346.5 C 309 339.5 309 336 311.42 331.8 C 313.84 328.3 319.89 324.8 325.94 323.4 C 333.2 322 339.25 322 351.35 322 M 351.35 322" stroke="black" stroke-linecap="round" stroke-linejoin="round" stroke-width="2"/>
        <text transform="translate(314 342.664)" fill="black">
          <tspan font-family="Helvetica Neue" font-size="24" fill="black" x="1.044" y="23" xml:space="preserve">dataframe</tspan>
        </text>
      </g>
    </g>
  </g>
</svg>
